<?xml version="1.0" encoding="UTF-8"?>
<svg version="1.1" xmlns="http://www.w3.org/2000/svg" width="188" height="51">
<path d="M0 0 C-0.3125 1.875 -0.3125 1.875 -1 4 C-1.99 4.66 -2.98 5.32 -4 6 C-4.5788145 8.18842739 -4.5788145 8.18842739 -4.8125 10.6875 C-5.94716717 17.23074737 -9.02669131 20.8669742 -14.3359375 24.67578125 C-17.42223979 26.20988166 -19.38589531 26.33981926 -22.8125 26.25 C-23.86179687 26.22421875 -24.91109375 26.1984375 -25.9921875 26.171875 C-29.70371195 25.95978789 -33.31912299 25.51661432 -37 25 C-38.66630509 24.96528531 -40.33414654 24.94794208 -42 25 C-41.45358063 21.26477505 -40.14498349 19.89506841 -37.1875 17.625 C-27.17112714 10.23871247 -15.6096475 6.15472157 -4 2 C-4.99 1.34 -5.98 0.68 -7 0 C-4.3333581 -1.33332095 -2.83319697 -0.67102033 0 0 Z " fill="#347CBF" transform="translate(51,19)"/>
<path d="M0 0 C1.2658293 0.72296348 2.51681044 1.47266898 3.75 2.25 C4.65492187 2.80494141 4.65492187 2.80494141 5.578125 3.37109375 C7.0026128 4.27970396 8.38208462 5.25826135 9.75 6.25 C9.75 6.58 9.75 6.91 9.75 7.25 C6.45 7.91 3.15 8.57 -0.25 9.25 C-0.58 10.24 -0.91 11.23 -1.25 12.25 C-6.695 11.755 -6.695 11.755 -12.25 11.25 C-10.27 11.91 -8.29 12.57 -6.25 13.25 C-6.25 13.91 -6.25 14.57 -6.25 15.25 C-10.875 17.375 -10.875 17.375 -14.25 16.25 C-16.46465135 17.11808578 -16.46465135 17.11808578 -17.5 19.5625 C-19.96686556 23.35090069 -23.25592415 25.25296207 -27.25 27.25 C-27.33139142 24.85347472 -27.39067009 22.45974564 -27.4375 20.0625 C-27.47520508 19.05219727 -27.47520508 19.05219727 -27.51367188 18.02148438 C-27.611757 11.31900117 -24.99414875 7.87704813 -20.75 3 C-20.1621875 2.31421875 -19.574375 1.6284375 -18.96875 0.921875 C-14.22847062 -3.68912403 -5.53495019 -2.7194842 0 0 Z M-23.25 16.25 C-22.26 17.735 -22.26 17.735 -21.25 19.25 C-20.26 18.92 -19.27 18.59 -18.25 18.25 C-18.91 18.25 -19.57 18.25 -20.25 18.25 C-20.25 17.59 -20.25 16.93 -20.25 16.25 C-21.24 16.25 -22.23 16.25 -23.25 16.25 Z " fill="#9EDEF4" transform="translate(36.25,10.75)"/>
<path d="M0 0 C-0.25 1.875 -0.25 1.875 -1 4 C-3.10866415 5.43087924 -4.77222095 5.96540557 -7.2890625 6.34765625 C-10.53520651 7.12878889 -12.8080368 8.46514728 -15.625 10.25 C-16.56601562 10.83265625 -17.50703125 11.4153125 -18.4765625 12.015625 C-21.16992171 14.13362264 -22.40532754 16.00026552 -24 19 C-27.14136126 22.87434555 -27.14136126 22.87434555 -30.5625 23.375 C-33 23 -33 23 -36 21 C-32.86742644 13.69066169 -26.95872343 11.03041182 -20 8 C-14.70790063 5.88953627 -9.35839109 3.93460522 -4 2 C-4.99 1.34 -5.98 0.68 -7 0 C-4.3333581 -1.33332095 -2.83319697 -0.67102033 0 0 Z " fill="#3489C8" transform="translate(51,19)"/>
<path d="M0 0 C0 3.96 0 7.92 0 12 C-4.48900544 13.12225136 -8.07403547 13.98900881 -12.3125 11.8125 C-14.44897293 9.51776981 -14.84790321 8.11798412 -15 5 C-12.48770889 -1.95711385 -6.38128573 -0.074201 0 0 Z M-10 4 C-10 5.32 -10 6.64 -10 8 C-8.68 8.33 -7.36 8.66 -6 9 C-5.67 7.68 -5.34 6.36 -5 5 C-6.65 4.67 -8.3 4.34 -10 4 Z " fill="#4B7DA1" transform="translate(70,22)"/>
<path d="M0 0 C2.15323612 1.43549075 2.79260731 2.55558708 3.875 4.875 C4.06775334 8.15180683 3.12590355 9.54192402 1 12 C-3.14382642 13.30453795 -5.09052642 13.45473679 -9 11.5 C-11 9 -11 9 -11 5.375 C-9.2232511 -0.62152754 -5.64224814 -0.50377216 0 0 Z " fill="#3E75A1" transform="translate(167,22)"/>
<path d="M0 0 C3.4375 0.4375 3.4375 0.4375 6.4375 2.4375 C7.50816415 5.4847749 7.54486667 7.07410511 6.625 10.1875 C5.4375 12.4375 5.4375 12.4375 3.4375 13.4375 C0.1627119 13.72226418 -1.92561555 13.76454877 -4.875 12.25 C-7.05677297 9.90661421 -7.5625 8.64653557 -7.5625 5.4375 C-5.46982403 1.51373256 -4.46705082 0.54858519 0 0 Z M-1.5625 4.4375 C2.4375 5.4375 2.4375 5.4375 2.4375 5.4375 Z " fill="#4A81A8" transform="translate(123.5625,21.5625)"/>
<path d="M0 0 C0 3.96 0 7.92 0 12 C-4.70776079 13.1769402 -8.66260751 13.31478328 -13 10.875 C-14.66299961 7.75687573 -13.84309589 5.31216241 -13 2 C-8.61501596 -0.92332269 -5.2225328 -0.1356502 0 0 Z M-9 4 C-8.67 5.65 -8.34 7.3 -8 9 C-6.68 8.67 -5.36 8.34 -4 8 C-4.33 6.68 -4.66 5.36 -5 4 C-6.32 4 -7.64 4 -9 4 Z " fill="#487AA3" transform="translate(102,22)"/>
<path d="M0 0 C0.99 0 1.98 0 3 0 C3.33 2.97 3.66 5.94 4 9 C4.99 8.01 5.98 7.02 7 6 C8.32 6 9.64 6 11 6 C10.67 6.5775 10.34 7.155 10 7.75 C8.72924102 10.19883862 8.72924102 10.19883862 9 14 C10.41977909 16.22743787 10.41977909 16.22743787 12 18 C10.25 18.75 10.25 18.75 8 19 C5.75 17.0625 5.75 17.0625 4 15 C3.67 16.32 3.34 17.64 3 19 C1.68 18.67 0.36 18.34 -1 18 C-1.02684312 15.18743719 -1.04676188 12.37512759 -1.0625 9.5625 C-1.07087891 8.76005859 -1.07925781 7.95761719 -1.08789062 7.13085938 C-1.0965143 5.08704779 -1.0522815 3.04316098 -1 1 C-0.67 0.67 -0.34 0.34 0 0 Z " fill="#457499" transform="translate(144,16)"/>
<path d="M0 0 C0.66 1.32 1.32 2.64 2 4 C1.01 4.495 1.01 4.495 0 5 C-0.65213292 7.02463255 -0.65213292 7.02463255 -1 9 C1.475 9.99 1.475 9.99 4 11 C6.2773501 8.18490007 6.2773501 8.18490007 6 5 C6.33 4.01 6.66 3.02 7 2 C8.65 2 10.3 2 12 2 C12 2.66 12 3.32 12 4 C13.98 4.66 15.96 5.32 18 6 C18 6.66 18 7.32 18 8 C13.375 10.125 13.375 10.125 10 9 C7.78534865 9.86808578 7.78534865 9.86808578 6.75 12.3125 C4.28313444 16.10090069 0.99407585 18.00296207 -3 20 C-3.08139142 17.60347472 -3.14067009 15.20974564 -3.1875 12.8125 C-3.22520508 11.80219727 -3.22520508 11.80219727 -3.26367188 10.77148438 C-3.32923478 6.29135252 -2.66743649 3.60559001 0 0 Z " fill="#7DC2D6" transform="translate(12,18)"/>
<path d="M0 0 C3.63 0 7.26 0 11 0 C11 1.32 11 2.64 11 4 C10.01 4 9.02 4 8 4 C8 8.29 8 12.58 8 17 C6.68 17.33 5.36 17.66 4 18 C3 17 3 17 2.90234375 14.05859375 C2.91394531 12.86363281 2.92554687 11.66867188 2.9375 10.4375 C2.94652344 9.23996094 2.95554687 8.04242188 2.96484375 6.80859375 C2.97644531 5.88175781 2.98804687 4.95492188 3 4 C2.01 4 1.02 4 0 4 C0 2.68 0 1.36 0 0 Z " fill="#517796" transform="translate(70,17)"/>
<path d="M0 0 C1.2065625 0.0309375 1.2065625 0.0309375 2.4375 0.0625 C4.4375 3.8125 4.4375 3.8125 4.4375 6.0625 C4.499375 6.8875 4.56125 7.7125 4.625 8.5625 C4.563125 9.3875 4.50125 10.2125 4.4375 11.0625 C1.4375 13.0625 1.4375 13.0625 -1.25 12.6875 C-2.013125 12.48125 -2.77625 12.275 -3.5625 12.0625 C-4.65389775 8.10618316 -4.74726096 5.01170319 -3.5625 1.0625 C-2.5625 0.0625 -2.5625 0.0625 0 0 Z " fill="#3E79A4" transform="translate(175.5625,21.9375)"/>
<path d="M0 0 C1.32 0 2.64 0 4 0 C5.75 2 5.75 2 7 4 C7.66 2.68 8.32 1.36 9 0 C10.32 0 11.64 0 13 0 C12.54554036 1.41791408 12.08625056 2.83428046 11.625 4.25 C11.36976562 5.03890625 11.11453125 5.8278125 10.8515625 6.640625 C10.04826333 8.86627958 9.10288338 10.90931672 8 13 C7.01 13 6.02 13 5 13 C4.16209211 11.21046815 3.32980604 9.41830305 2.5 7.625 C1.80390625 6.12839844 1.80390625 6.12839844 1.09375 4.6015625 C0 2 0 2 0 0 Z " fill="#4D79A0" transform="translate(103,22)"/>
<path d="M0 0 C0.66 0.33 1.32 0.66 2 1 C1.01 2.32 0.02 3.64 -1 5 C4.47220467 6.24277982 4.47220467 6.24277982 9.5 4.5625 C9.995 4.046875 10.49 3.53125 11 3 C11 4.32 11 5.64 11 7 C13.64 7.33 16.28 7.66 19 8 C18.67 8.66 18.34 9.32 18 10 C11.21635616 10.10175466 4.71647046 9.94266252 -2 9 C-3.66630509 8.96528531 -5.33414654 8.94794208 -7 9 C-6.82374165 6.62051228 -6.30280227 5.29774151 -4.59765625 3.62109375 C-3.09350908 2.37884514 -1.54870149 1.18623944 0 0 Z " fill="#4982B5" transform="translate(16,35)"/>
<path d="M0 0 C1.32 0 2.64 0 4 0 C4 5.94 4 11.88 4 18 C2.68 18.33 1.36 18.66 0 19 C-1.09587955 14.75448144 -0.92865836 11.0407161 -0.5625 6.6875 C-0.46066406 5.43324219 -0.35882813 4.17898437 -0.25390625 2.88671875 C-0.17011719 1.93410156 -0.08632812 0.98148438 0 0 Z " fill="#4376A2" transform="translate(132,16)"/>
<path d="M0 0 C2.64 0 5.28 0 8 0 C7.67 1.32 7.34 2.64 7 4 C6.34 4 5.68 4 5 4 C5 6.64 5 9.28 5 12 C3.0625 12.5625 3.0625 12.5625 1 13 C0 12 0 12 -0.09765625 9.27734375 C-0.08605469 8.17519531 -0.07445313 7.07304687 -0.0625 5.9375 C-0.05347656 4.83277344 -0.04445313 3.72804688 -0.03515625 2.58984375 C-0.02355469 1.73519531 -0.01195313 0.88054688 0 0 Z " fill="#4B7CA0" transform="translate(80,22)"/>
<path d="M0 0 C1.17755859 -0.03867188 1.17755859 -0.03867188 2.37890625 -0.078125 C3.05824219 0.03015625 3.73757812 0.1384375 4.4375 0.25 C5.0975 1.24 5.7575 2.23 6.4375 3.25 C5.4475 4.57 4.4575 5.89 3.4375 7.25 C-2.5025 5.765 -2.5025 5.765 -8.5625 4.25 C-8.2325 3.26 -7.9025 2.27 -7.5625 1.25 C-4.78580178 0.32443393 -2.88553105 0.05704509 0 0 Z " fill="#AEE4F8" transform="translate(28.5625,11.75)"/>
<path d="M0 0 C1.50433594 0.01353516 1.50433594 0.01353516 3.0390625 0.02734375 C3.80992188 0.03894531 4.58078125 0.05054687 5.375 0.0625 C4.375 3.0625 4.375 3.0625 3.375 5.0625 C2.715 5.0625 2.055 5.0625 1.375 5.0625 C1.045 5.7225 0.715 6.3825 0.375 7.0625 C0.045 6.4025 -0.285 5.7425 -0.625 5.0625 C-2.64963255 4.41036708 -2.64963255 4.41036708 -4.625 4.0625 C-4.955 5.0525 -5.285 6.0425 -5.625 7.0625 C-6.945 6.4025 -8.265 5.7425 -9.625 5.0625 C-7.31621143 -0.04981756 -5.45179037 -0.06339291 0 0 Z " fill="#447399" transform="translate(64.625,21.9375)"/>
<path d="M0 0 C1.65 0 3.3 0 5 0 C5 3.96 5 7.92 5 12 C3.68 12.33 2.36 12.66 1 13 C0 12 0 12 -0.09765625 9.27734375 C-0.08605469 8.17519531 -0.07445312 7.07304687 -0.0625 5.9375 C-0.05347656 4.83277344 -0.04445312 3.72804688 -0.03515625 2.58984375 C-0.02355469 1.73519531 -0.01195312 0.88054688 0 0 Z " fill="#487FA8" transform="translate(137,22)"/>
<path d="M0 0 C7.13196722 -0.52612873 11.93570955 0.17742375 18 4 C18.60328125 4.36996094 19.2065625 4.73992188 19.828125 5.12109375 C21.2526128 6.02970396 22.63208462 7.00826135 24 8 C24 8.33 24 8.66 24 9 C20.7 9.66 17.4 10.32 14 11 C14 10.34 14 9.68 14 9 C14.66 8.67 15.32 8.34 16 8 C15.4946875 7.66226562 14.989375 7.32453125 14.46875 6.9765625 C13.8190625 6.53054687 13.169375 6.08453125 12.5 5.625 C11.8503125 5.18414063 11.200625 4.74328125 10.53125 4.2890625 C10.0259375 3.86367187 9.520625 3.43828125 9 3 C9 2.34 9 1.68 9 1 C6.03 1 3.06 1 0 1 C0 0.67 0 0.34 0 0 Z " fill="#78BFD9" transform="translate(22,9)"/>
<path d="M0 0 C-0.25 1.875 -0.25 1.875 -1 4 C-3.07272785 5.4064939 -4.76295207 5.95882852 -7.2265625 6.38671875 C-11.70298656 7.3765759 -15.81322775 9.28877397 -20.0390625 11.0390625 C-23 12 -23 12 -26 11 C-18.79179833 7.66597391 -11.4291594 4.80172317 -4 2 C-4.99 1.34 -5.98 0.68 -7 0 C-4.3333581 -1.33332095 -2.83319697 -0.67102033 0 0 Z " fill="#5692B9" transform="translate(51,19)"/>
<path d="M0 0 C0.33 0 0.66 0 1 0 C1 1.98 1 3.96 1 6 C1.53625 5.649375 2.0725 5.29875 2.625 4.9375 C5.78390245 3.69056482 7.75318971 4.15300601 11 5 C11.66 5.66 12.32 6.32 13 7 C11.875 8.5 11.875 8.5 10 10 C6.66300655 10.42599916 4.69339158 10.35606595 1.6875 8.8125 C-0.40832947 6.56142391 -0.76621724 5.03917592 -1 2 C-0.67 1.34 -0.34 0.68 0 0 Z " fill="#4D7AA4" transform="translate(117,25)"/>
<path d="M0 0 C0.99 0.33 1.98 0.66 3 1 C2.67 1.66 2.34 2.32 2 3 C2.33 3.99 2.66 4.98 3 6 C3.33 6.99 3.66 7.98 4 9 C3.67 9.66 3.34 10.32 3 11 C0.9375 11.625 0.9375 11.625 -1 12 C-1 11.34 -1 10.68 -1 10 C-1.66 10 -2.32 10 -3 10 C-3.36923077 3.47692308 -3.36923077 3.47692308 -1.5 1.0625 C-1.005 0.711875 -0.51 0.36125 0 0 Z " fill="#3170B9" transform="translate(30,32)"/>
<path d="M0 0 C0.79664062 0.0928125 1.59328125 0.185625 2.4140625 0.28125 C2.4140625 0.94125 2.4140625 1.60125 2.4140625 2.28125 C1.73859375 2.39082031 1.063125 2.50039062 0.3671875 2.61328125 C-0.52484375 2.77183594 -1.416875 2.93039063 -2.3359375 3.09375 C-3.21765625 3.24457031 -4.099375 3.39539063 -5.0078125 3.55078125 C-7.8046612 4.34322171 -9.31064599 5.51928645 -11.5859375 7.28125 C-13.8359375 7.96875 -13.8359375 7.96875 -15.5859375 8.28125 C-11.72945692 0.70360394 -8.38688043 -0.57136898 0 0 Z " fill="#90CDE6" transform="translate(28.5859375,9.71875)"/>
<path d="M0 0 C3.3 0 6.6 0 10 0 C9.67 0.66 9.34 1.32 9 2 C8.01 2 7.02 2 6 2 C6.061875 3.27875 6.12375 4.5575 6.1875 5.875 C6.29296875 8.0546875 6.29296875 8.0546875 6 10 C5.01 10.66 4.02 11.32 3 12 C3 8.7 3 5.4 3 2 C2.01 2 1.02 2 0 2 C0 1.34 0 0.68 0 0 Z " fill="#447CA4" transform="translate(71,18)"/>
<path d="M0 0 C1.65 0 3.3 0 5 0 C5.66 1.65 6.32 3.3 7 5 C0.25 6 0.25 6 -2 6 C-1.34 4.02 -0.68 2.04 0 0 Z " fill="#8AD3EF" transform="translate(12,22)"/>
<path d="M0 0 C-0.639375 0.268125 -1.27875 0.53625 -1.9375 0.8125 C-4.33131686 1.88667752 -4.33131686 1.88667752 -5 5 C-7.46800047 3.84826645 -9.04783565 2.95216435 -11 1 C-10.67 0.34 -10.34 -0.32 -10 -1 C-5.95206114 -2.07945036 -3.55979782 -2.32756011 0 0 Z " fill="#ADDDE9" transform="translate(23,19)"/>
<path d="M0 0 C1.32 1.32 2.64 2.64 4 4 C3.01 4 2.02 4 1 4 C1 5.65 1 7.3 1 9 C-2.3 8.67 -5.6 8.34 -9 8 C-9 7.67 -9 7.34 -9 7 C-5.535 6.505 -5.535 6.505 -2 6 C-1.34 4.02 -0.68 2.04 0 0 Z " fill="#94D0E8" transform="translate(35,14)"/>
<path d="M0 0 C6.51791392 -0.3540919 11.17521449 -0.03901852 17 3 C16.34 3.66 15.68 4.32 15 5 C12.73725212 4.64644564 11.04911148 4.02455574 9 3 C9 2.34 9 1.68 9 1 C6.03 1 3.06 1 0 1 C0 0.67 0 0.34 0 0 Z " fill="#83BDD1" transform="translate(22,9)"/>
<path d="M0 0 C0 1.66666667 0 3.33333333 0 5 C1.32 5 2.64 5 4 5 C3.67 5.99 3.34 6.98 3 8 C0.69 8.33 -1.62 8.66 -4 9 C-2.68 8.67 -1.36 8.34 0 8 C-0.33 6.68 -0.66 5.36 -1 4 C-1.66 4 -2.32 4 -3 4 C-3 3.01 -3 2.02 -3 1 C-2.01 0.67 -1.02 0.34 0 0 Z " fill="#467693" transform="translate(165,26)"/>
<path d="M0 0 C0.33 0 0.66 0 1 0 C1 1.98 1 3.96 1 6 C2.32 5.67 3.64 5.34 5 5 C5.33 5.99 5.66 6.98 6 8 C6.99 8.66 7.98 9.32 9 10 C5.6875 9.8125 5.6875 9.8125 2 9 C0 6.6875 0 6.6875 -1 4 C-0.6875 1.6875 -0.6875 1.6875 0 0 Z " fill="#547997" transform="translate(117,25)"/>
<path d="M0 0 C2.64 0.66 5.28 1.32 8 2 C8 2.66 8 3.32 8 4 C6.35 4.66 4.7 5.32 3 6 C1.68 4.68 0.36 3.36 -1 2 C-0.67 1.34 -0.34 0.68 0 0 Z " fill="#6FA7B7" transform="translate(22,22)"/>
<path d="M0 0 C2.31 0 4.62 0 7 0 C7.33 1.65 7.66 3.3 8 5 C4.89448334 5 3.64738916 4.4606285 1 3 C1.66 3 2.32 3 3 3 C3 2.34 3 1.68 3 1 C2.01 0.67 1.02 0.34 0 0 Z " fill="#41739B" transform="translate(92,22)"/>
<path d="M0 0 C0.33 0 0.66 0 1 0 C1.1875 2.375 1.1875 2.375 1 5 C-2 7 -2 7 -4.6875 6.625 C-5.450625 6.41875 -6.21375 6.2125 -7 6 C-7.33 4.68 -7.66 3.36 -8 2 C-7.67 2.66 -7.34 3.32 -7 4 C-6.34 4 -5.68 4 -5 4 C-4.67 3.34 -4.34 2.68 -4 2 C-4 2.99 -4 3.98 -4 5 C-3.34 5 -2.68 5 -2 5 C-1.34 3.35 -0.68 1.7 0 0 Z " fill="#487395" transform="translate(179,28)"/>
<path d="M0 0 C0.99 0 1.98 0 3 0 C3 3.96 3 7.92 3 12 C2.34 10.68 1.68 9.36 1 8 C0.34 7.34 -0.32 6.68 -1 6 C-0.625 3.4375 -0.625 3.4375 0 1 C0 0.67 0 0.34 0 0 Z " fill="#4B7D9E" transform="translate(99,22)"/>
<path d="M0 0 C1.2065625 0.0309375 1.2065625 0.0309375 2.4375 0.0625 C3.0975 1.3825 3.7575 2.7025 4.4375 4.0625 C3.4475 4.7225 2.4575 5.3825 1.4375 6.0625 C1.4375 4.4125 1.4375 2.7625 1.4375 1.0625 C0.4475 1.3925 -0.5425 1.7225 -1.5625 2.0625 C-1.8925 3.0525 -2.2225 4.0425 -2.5625 5.0625 C-3.2225 5.0625 -3.8825 5.0625 -4.5625 5.0625 C-3.43829114 0.08386076 -3.43829114 0.08386076 0 0 Z " fill="#447191" transform="translate(175.5625,21.9375)"/>
<path d="M0 0 C0.66 1.32 1.32 2.64 2 4 C1.01 4.495 1.01 4.495 0 5 C-0.68472665 6.88764903 -0.68472665 6.88764903 -1.125 9.0625 C-1.29257813 9.79597656 -1.46015625 10.52945312 -1.6328125 11.28515625 C-1.75398437 11.85105469 -1.87515625 12.41695312 -2 13 C-2.33 13 -2.66 13 -3 13 C-3.27429625 7.60550707 -3.36055646 4.48074195 0 0 Z " fill="#90BEC9" transform="translate(12,18)"/>
<path d="M0 0 C2.475 0.99 2.475 0.99 5 2 C5 2.66 5 3.32 5 4 C2.69 4 0.38 4 -2 4 C-1.34 2.68 -0.68 1.36 0 0 Z " fill="#3570B0" transform="translate(13,39)"/>
<path d="M0 0 C0.33 0 0.66 0 1 0 C1.33 3.63 1.66 7.26 2 11 C2.99 11.33 3.98 11.66 5 12 C3.0625 12.5625 3.0625 12.5625 1 13 C0 12 0 12 -0.09765625 9.27734375 C-0.08605469 8.17519531 -0.07445312 7.07304687 -0.0625 5.9375 C-0.05347656 4.83277344 -0.04445312 3.72804688 -0.03515625 2.58984375 C-0.02355469 1.73519531 -0.01195312 0.88054688 0 0 Z " fill="#537995" transform="translate(137,22)"/>
<path d="M0 0 C1.98 0.495 1.98 0.495 4 1 C3.67 2.32 3.34 3.64 3 5 C1.68 4.67 0.36 4.34 -1 4 C-0.67 2.68 -0.34 1.36 0 0 Z " fill="#517B9B" transform="translate(138,16)"/>
<path d="M0 0 C1.4540625 0.0309375 1.4540625 0.0309375 2.9375 0.0625 C2.2775 1.3825 1.6175 2.7025 0.9375 4.0625 C0.2775 4.0625 -0.3825 4.0625 -1.0625 4.0625 C-1.3925 4.7225 -1.7225 5.3825 -2.0625 6.0625 C-2.0625 4.7425 -2.0625 3.4225 -2.0625 2.0625 C-2.7225 1.7325 -3.3825 1.4025 -4.0625 1.0625 C-3.0625 0.0625 -3.0625 0.0625 0 0 Z " fill="#3669AC" transform="translate(67.0625,22.9375)"/>
<path d="M0 0 C0.33 0 0.66 0 1 0 C1.28571429 7.42857143 1.28571429 7.42857143 -1 11 C-1.33 11 -1.66 11 -2 11 C-2.19622241 6.78121808 -1.80230168 3.82989106 0 0 Z " fill="#4C8ABC" transform="translate(45,25)"/>
<path d="M0 0 C0.33 0 0.66 0 1 0 C1 1.65 1 3.3 1 5 C-0.32 5.33 -1.64 5.66 -3 6 C-3.33 5.34 -3.66 4.68 -4 4 C-3.34 3.01 -2.68 2.02 -2 1 C-1.34 1.33 -0.68 1.66 0 2 C0 1.34 0 0.68 0 0 Z " fill="#4D85A7" transform="translate(135,29)"/>
<path d="M0 0 C0.99 0.66 1.98 1.32 3 2 C2.67 3.32 2.34 4.64 2 6 C1.01 5.67 0.02 5.34 -1 5 C-1.6875 2.9375 -1.6875 2.9375 -2 1 C-1.34 0.67 -0.68 0.34 0 0 Z " fill="#5283A7" transform="translate(57,27)"/>
<path d="M0 0 C0.99 0.33 1.98 0.66 3 1 C3.33 2.65 3.66 4.3 4 6 C3.01 5.34 2.02 4.68 1 4 C-0.9896995 3.60986284 -2.99019869 3.26797351 -5 3 C-2 1 -2 1 0 0 Z " fill="#48779E" transform="translate(127,23)"/>
<path d="M0 0 C0.99 0 1.98 0 3 0 C2.67 2.64 2.34 5.28 2 8 C1.34 8 0.68 8 0 8 C0 5.36 0 2.72 0 0 Z " fill="#4681AC" transform="translate(133,17)"/>
<path d="M0 0 C2.64 0 5.28 0 8 0 C7.67 1.32 7.34 2.64 7 4 C6.34 4 5.68 4 5 4 C5 3.01 5 2.02 5 1 C3.35 1.33 1.7 1.66 0 2 C0 1.34 0 0.68 0 0 Z " fill="#517997" transform="translate(80,22)"/>
</svg>
