<?xml version="1.0" encoding="UTF-8"?>
<svg version="1.1" xmlns="http://www.w3.org/2000/svg" width="47" height="44">
<path d="M0 0 C0.99 0.33 1.98 0.66 3 1 C2.6875 2.875 2.6875 2.875 2 5 C1.01 5.66 0.02 6.32 -1 7 C-1.57684838 8.95764019 -1.57684838 8.95764019 -1.8125 11.1875 C-3.08948732 17.69804191 -6.8327017 21.77474039 -12.25 25.4375 C-16.58628306 27.70750053 -21.22792404 27.53216935 -26 27 C-26.66 26.67 -27.32 26.34 -28 26 C-29.70702735 25.93003986 -31.41668003 25.91559846 -33.125 25.9375 C-34.03507812 25.94652344 -34.94515625 25.95554687 -35.8828125 25.96484375 C-36.93082031 25.98224609 -36.93082031 25.98224609 -38 26 C-38.33 25.34 -38.66 24.68 -39 24 C-38.67 23.34 -38.34 22.68 -38 22 C-37.34 22 -36.68 22 -36 22 C-35.67 21.01 -35.34 20.02 -35 19 C-25.21368556 11.1519459 -12.85764538 6.67995891 -1 3 C-1.495 2.01 -1.495 2.01 -2 1 C-1.34 0.67 -0.68 0.34 0 0 Z " fill="#3176BC" transform="translate(42,14)"/>
<path d="M0 0 C2.39505308 1.94946181 4.58723658 3.92567786 6.6875 6.1875 C4.0475 6.8475 1.4075 7.5075 -1.3125 8.1875 C-1.3125 9.1775 -1.3125 10.1675 -1.3125 11.1875 C-16.09382118 9.26039294 -16.09382118 9.26039294 -22.3125 7.1875 C-19.00233906 9.03540538 -15.74076509 9.93291487 -12.0625 10.8125 C-10.98484375 11.07289062 -9.9071875 11.33328125 -8.796875 11.6015625 C-7.97703125 11.79492188 -7.1571875 11.98828125 -6.3125 12.1875 C-6.3125 12.8475 -6.3125 13.5075 -6.3125 14.1875 C-10.69711538 17.1875 -10.69711538 17.1875 -13.3125 17.1875 C-13.6425 16.5275 -13.9725 15.8675 -14.3125 15.1875 C-15.6325 15.5175 -16.9525 15.8475 -18.3125 16.1875 C-17.9825 17.1775 -17.6525 18.1675 -17.3125 19.1875 C-21.7675 22.1575 -21.7675 22.1575 -26.3125 25.1875 C-26.9725 24.8575 -27.6325 24.5275 -28.3125 24.1875 C-27.8175 22.7025 -27.8175 22.7025 -27.3125 21.1875 C-27.6425 20.5275 -27.9725 19.8675 -28.3125 19.1875 C-28.68438294 12.617568 -27.65862795 8.72064989 -23.6875 3.5625 C-17.21763701 -3.61231174 -8.36818192 -4.57881652 0 0 Z M-24.3125 15.1875 C-23.3225 16.6725 -23.3225 16.6725 -22.3125 18.1875 C-21.6525 17.8575 -20.9925 17.5275 -20.3125 17.1875 C-20.6425 16.5275 -20.9725 15.8675 -21.3125 15.1875 C-22.3025 15.1875 -23.2925 15.1875 -24.3125 15.1875 Z " fill="#ABE1F5" transform="translate(31.3125,7.8125)"/>
<path d="M0 0 C0.99 0.33 1.98 0.66 3 1 C2.6875 2.875 2.6875 2.875 2 5 C1.01 5.66 0.02 6.32 -1 7 C-1.61354378 8.98978768 -1.61354378 8.98978768 -1.875 11.25 C-2.78648545 16.11387495 -4.5773705 18.4873013 -8 22 C-8.33 20.68 -8.66 19.36 -9 18 C-8.01 18 -7.02 18 -6 18 C-6 15.36 -6 12.72 -6 10 C-8.31 9.67 -10.62 9.34 -13 9 C-13.28875 9.639375 -13.5775 10.27875 -13.875 10.9375 C-15 13 -15 13 -17 14 C-19.3329866 14.04022391 -21.66706666 14.04320247 -24 14 C-24.33 14.99 -24.66 15.98 -25 17 C-28.0625 18.1875 -28.0625 18.1875 -31 19 C-29.37633534 22.24732932 -26.24612161 22.70155136 -23 24 C-23 24.33 -23 24.66 -23 25 C-19.7 25 -16.4 25 -13 25 C-16.27127586 27.18085057 -17.27376723 27.24887859 -21.0625 27.1875 C-21.94035156 27.18105469 -22.81820313 27.17460938 -23.72265625 27.16796875 C-26 27 -26 27 -28 26 C-29.70702735 25.93003986 -31.41668003 25.91559846 -33.125 25.9375 C-34.03507812 25.94652344 -34.94515625 25.95554687 -35.8828125 25.96484375 C-36.93082031 25.98224609 -36.93082031 25.98224609 -38 26 C-38.33 25.34 -38.66 24.68 -39 24 C-38.67 23.34 -38.34 22.68 -38 22 C-37.34 22 -36.68 22 -36 22 C-35.67 21.01 -35.34 20.02 -35 19 C-25.21368556 11.1519459 -12.85764538 6.67995891 -1 3 C-1.495 2.01 -1.495 2.01 -2 1 C-1.34 0.67 -0.68 0.34 0 0 Z " fill="#4387BD" transform="translate(42,14)"/>
<path d="M0 0 C0 0.66 0 1.32 0 2 C-4.38461538 5 -4.38461538 5 -7 5 C-7.33 4.34 -7.66 3.68 -8 3 C-9.32 3.33 -10.64 3.66 -12 4 C-11.67 4.99 -11.34 5.98 -11 7 C-15.455 9.97 -15.455 9.97 -20 13 C-20.66 12.67 -21.32 12.34 -22 12 C-21.67 11.01 -21.34 10.02 -21 9 C-21.33 8.34 -21.66 7.68 -22 7 C-22.23333333 0.46666667 -22.23333333 0.46666667 -21 -2 C-13.38307533 -3.62327903 -7.38042428 -2.21038088 0 0 Z M-18 3 C-17.01 4.485 -17.01 4.485 -16 6 C-15.34 5.67 -14.68 5.34 -14 5 C-14.33 4.34 -14.66 3.68 -15 3 C-15.99 3 -16.98 3 -18 3 Z " fill="#ABDDEF" transform="translate(25,20)"/>
<path d="M0 0 C2.39505308 1.94946181 4.58723658 3.92567786 6.6875 6.1875 C3.9375 6.4375 3.9375 6.4375 0.6875 6.1875 C-1.5 4.25 -1.5 4.25 -3.3125 2.1875 C-7.78504497 0.69665168 -11.83995503 0.69665168 -16.3125 2.1875 C-16.0340625 3.1465625 -16.0340625 3.1465625 -15.75 4.125 C-15.605625 4.805625 -15.46125 5.48625 -15.3125 6.1875 C-16.3125 7.1875 -16.3125 7.1875 -19.375 7.25 C-20.344375 7.229375 -21.31375 7.20875 -22.3125 7.1875 C-21.3225 8.6725 -21.3225 8.6725 -20.3125 10.1875 C-22.6225 10.1875 -24.9325 10.1875 -27.3125 10.1875 C-25.0588319 4.86064812 -21.90776334 0.57124982 -16.5625 -1.75 C-10.60830934 -3.6373661 -5.43467111 -2.97368797 0 0 Z " fill="#9FD9ED" transform="translate(31.3125,7.8125)"/>
<path d="M0 0 C0.8971875 0.309375 0.8971875 0.309375 1.8125 0.625 C0.8225 0.955 -0.1675 1.285 -1.1875 1.625 C0.43616466 4.87232932 3.56637839 5.32655136 6.8125 6.625 C6.8125 6.955 6.8125 7.285 6.8125 7.625 C10.1125 7.625 13.4125 7.625 16.8125 7.625 C13.54122414 9.80585057 12.53873277 9.87387859 8.75 9.8125 C7.43322266 9.80283203 7.43322266 9.80283203 6.08984375 9.79296875 C3.8125 9.625 3.8125 9.625 1.8125 8.625 C0.10547265 8.55503986 -1.60418003 8.54059846 -3.3125 8.5625 C-4.22257813 8.57152344 -5.13265625 8.58054687 -6.0703125 8.58984375 C-7.11832031 8.60724609 -7.11832031 8.60724609 -8.1875 8.625 C-8.5175 7.965 -8.8475 7.305 -9.1875 6.625 C-8.8575 5.965 -8.5275 5.305 -8.1875 4.625 C-7.5275 4.625 -6.8675 4.625 -6.1875 4.625 C-5.8575 3.635 -5.5275 2.645 -5.1875 1.625 C-2.1875 -0.375 -2.1875 -0.375 0 0 Z " fill="#649ACA" transform="translate(12.1875,31.375)"/>
<path d="M0 0 C-0.66 0.66 -1.32 1.32 -2 2 C-3.32 2 -4.64 2 -6 2 C-6.433125 2.9590625 -6.433125 2.9590625 -6.875 3.9375 C-8 6 -8 6 -10 7 C-12.3329866 7.04022391 -14.66706666 7.04320247 -17 7 C-17.33 7.99 -17.66 8.98 -18 10 C-19.65 10 -21.3 10 -23 10 C-19.56077824 5.95015923 -15.71485983 4.22142547 -10.9375 2.1875 C-10.21755859 1.86330078 -9.49761719 1.53910156 -8.75585938 1.20507812 C-3.3790765 -1.12635883 -3.3790765 -1.12635883 0 0 Z " fill="#85BADB" transform="translate(35,21)"/>
<path d="M0 0 C1.1446875 0.0928125 1.1446875 0.0928125 2.3125 0.1875 C2.3125 1.1775 2.3125 2.1675 2.3125 3.1875 C1.425625 3.620625 0.53875 4.05375 -0.375 4.5 C-3.64454857 6.09203076 -3.64454857 6.09203076 -6.375 7.9375 C-7.5196875 8.55625 -7.5196875 8.55625 -8.6875 9.1875 C-9.6775 8.8575 -10.6675 8.5275 -11.6875 8.1875 C-11.6875 7.5275 -11.6875 6.8675 -11.6875 6.1875 C-8.22596154 3.1875 -8.22596154 3.1875 -5.6875 3.1875 C-5.254375 2.6925 -4.82125 2.1975 -4.375 1.6875 C-2.6875 0.1875 -2.6875 0.1875 0 0 Z " fill="#2D88C9" transform="translate(22.6875,26.8125)"/>
<path d="M0 0 C2.8203125 0.4609375 2.8203125 0.4609375 6.125 1.375 C7.22070312 1.67148437 8.31640625 1.96796875 9.4453125 2.2734375 C10.28835937 2.51320313 11.13140625 2.75296875 12 3 C12 3.66 12 4.32 12 5 C7.61538462 8 7.61538462 8 5 8 C4.67 7.34 4.34 6.68 4 6 C3.34 5.67 2.68 5.34 2 5 C2.33 4.34 2.66 3.68 3 3 C1.35 2.67 -0.3 2.34 -2 2 C-1.34 1.34 -0.68 0.68 0 0 Z " fill="#E1F4F9" transform="translate(13,17)"/>
<path d="M0 0 C0.33 0 0.66 0 1 0 C0.67 3.3 0.34 6.6 0 10 C-0.99 9.67 -1.98 9.34 -3 9 C-3 7.68 -3 6.36 -3 5 C-4.65 4.67 -6.3 4.34 -8 4 C-7.67 3.01 -7.34 2.02 -7 1 C-5.5459375 1.0309375 -5.5459375 1.0309375 -4.0625 1.0625 C-1.12534105 1.35618499 -1.12534105 1.35618499 0 0 Z " fill="#2D7EC3" transform="translate(36,22)"/>
<path d="M0 0 C0.99 0.33 1.98 0.66 3 1 C2.6875 2.875 2.6875 2.875 2 5 C1.01 5.66 0.02 6.32 -1 7 C-1.79437923 9.18505129 -1.79437923 9.18505129 -2.1875 11.625 C-2.34605469 12.44226562 -2.50460938 13.25953125 -2.66796875 14.1015625 C-2.77753906 14.72804688 -2.88710938 15.35453125 -3 16 C-3.33 16 -3.66 16 -4 16 C-3.67 12.7 -3.34 9.4 -3 6 C-4.32 5.67 -5.64 5.34 -7 5 C-5.02 4.34 -3.04 3.68 -1 3 C-1.33 2.34 -1.66 1.68 -2 1 C-1.34 0.67 -0.68 0.34 0 0 Z " fill="#9DC6E4" transform="translate(42,14)"/>
<path d="M0 0 C0.99 0.33 1.98 0.66 3 1 C3.1875 3.375 3.1875 3.375 3 6 C0 8 0 8 -2.1875 7.625 C-2.785625 7.41875 -3.38375 7.2125 -4 7 C-3.34 5.68 -2.68 4.36 -2 3 C-1.34 3 -0.68 3 0 3 C0 2.01 0 1.02 0 0 Z " fill="#387DBB" transform="translate(30,31)"/>
<path d="M0 0 C4.62 0 9.24 0 14 0 C14 0.99 14 1.98 14 3 C9.38 2.34 4.76 1.68 0 1 C0 0.67 0 0.34 0 0 Z " fill="#D1EBF7" transform="translate(16,16)"/>
<path d="M0 0 C0 0.66 0 1.32 0 2 C-0.66 2 -1.32 2 -2 2 C-2.33 2.99 -2.66 3.98 -3 5 C-4.65 5 -6.3 5 -8 5 C-3.16129032 0 -3.16129032 0 0 0 Z " fill="#8BC2E1" transform="translate(20,26)"/>
<path d="M0 0 C0.33 0.66 0.66 1.32 1 2 C1.99 2.66 2.98 3.32 4 4 C2.02 4.33 0.04 4.66 -2 5 C-2.33 4.34 -2.66 3.68 -3 3 C-2.01 2.01 -1.02 1.02 0 0 Z " fill="#749BC1" transform="translate(6,35)"/>
<path d="M0 0 C0.99 0.33 1.98 0.66 3 1 C2.67 2.32 2.34 3.64 2 5 C1.01 5 0.02 5 -1 5 C-1.33 3.68 -1.66 2.36 -2 1 C-1.34 0.67 -0.68 0.34 0 0 Z " fill="#9FBDD0" transform="translate(42,14)"/>
</svg>
